<mxfile host="app.diagrams.net" agent="Mozilla/5.0 (Macintosh; Intel Mac OS X 10_15_7) AppleWebKit/537.36 (KHTML, like Gecko) Chrome/134.0.0.0 Safari/537.36" version="27.1.1">
  <diagram name="Page-1" id="r8rTLrDm3Gs_ohlQEXfb">
    <mxGraphModel dx="1581" dy="1013" grid="1" gridSize="10" guides="1" tooltips="1" connect="1" arrows="1" fold="1" page="1" pageScale="1" pageWidth="827" pageHeight="1169" math="0" shadow="0">
      <root>
        <mxCell id="0" />
        <mxCell id="1" parent="0" />
        <mxCell id="nfOfjNwId2rxGAu0tH5m-1" value="" style="rounded=0;html=1;jettySize=auto;orthogonalLoop=1;fontSize=11;endArrow=block;endFill=0;endSize=8;strokeWidth=1;shadow=0;labelBackgroundColor=none;edgeStyle=orthogonalEdgeStyle;" edge="1" parent="1" source="nfOfjNwId2rxGAu0tH5m-2" target="nfOfjNwId2rxGAu0tH5m-5">
          <mxGeometry relative="1" as="geometry" />
        </mxCell>
        <mxCell id="nfOfjNwId2rxGAu0tH5m-2" value="Bæreevne til skogsbilvei" style="rounded=1;whiteSpace=wrap;html=1;fontSize=12;glass=0;strokeWidth=1;shadow=0;fillColor=#dae8fc;strokeColor=#6c8ebf;" vertex="1" parent="1">
          <mxGeometry x="450" y="150" width="120" height="40" as="geometry" />
        </mxCell>
        <mxCell id="nfOfjNwId2rxGAu0tH5m-3" value="Nei" style="rounded=0;html=1;jettySize=auto;orthogonalLoop=1;fontSize=11;endArrow=block;endFill=0;endSize=8;strokeWidth=1;shadow=0;labelBackgroundColor=none;edgeStyle=orthogonalEdgeStyle;" edge="1" parent="1" source="nfOfjNwId2rxGAu0tH5m-5" target="nfOfjNwId2rxGAu0tH5m-11">
          <mxGeometry y="20" relative="1" as="geometry">
            <mxPoint as="offset" />
          </mxGeometry>
        </mxCell>
        <mxCell id="nfOfjNwId2rxGAu0tH5m-4" value="Ja" style="edgeStyle=orthogonalEdgeStyle;rounded=0;html=1;jettySize=auto;orthogonalLoop=1;fontSize=11;endArrow=block;endFill=0;endSize=8;strokeWidth=1;shadow=0;labelBackgroundColor=none;" edge="1" parent="1" source="nfOfjNwId2rxGAu0tH5m-5" target="nfOfjNwId2rxGAu0tH5m-6">
          <mxGeometry y="10" relative="1" as="geometry">
            <mxPoint as="offset" />
          </mxGeometry>
        </mxCell>
        <mxCell id="nfOfjNwId2rxGAu0tH5m-5" value="&lt;font&gt;Er det minst Xcm &lt;br&gt;tele i bakken?&lt;/font&gt;" style="rhombus;whiteSpace=wrap;shadow=0;fontFamily=Helvetica;fontSize=12;align=center;strokeWidth=1;spacing=6;spacingTop=-4;html=1;" vertex="1" parent="1">
          <mxGeometry x="440" y="240" width="140" height="120" as="geometry" />
        </mxCell>
        <mxCell id="nfOfjNwId2rxGAu0tH5m-6" value="God bæreevne" style="rounded=1;whiteSpace=wrap;html=1;fontSize=12;glass=0;strokeWidth=1;shadow=0;fillColor=#d5e8d4;strokeColor=#82b366;" vertex="1" parent="1">
          <mxGeometry x="680" y="280" width="120" height="40" as="geometry" />
        </mxCell>
        <mxCell id="nfOfjNwId2rxGAu0tH5m-7" style="edgeStyle=orthogonalEdgeStyle;rounded=0;orthogonalLoop=1;jettySize=auto;html=1;exitX=1;exitY=0.5;exitDx=0;exitDy=0;entryX=0;entryY=0.5;entryDx=0;entryDy=0;" edge="1" parent="1" source="nfOfjNwId2rxGAu0tH5m-11" target="nfOfjNwId2rxGAu0tH5m-14">
          <mxGeometry relative="1" as="geometry" />
        </mxCell>
        <mxCell id="nfOfjNwId2rxGAu0tH5m-8" style="edgeStyle=orthogonalEdgeStyle;rounded=0;orthogonalLoop=1;jettySize=auto;html=1;entryX=0;entryY=0.5;entryDx=0;entryDy=0;exitX=1;exitY=0.5;exitDx=0;exitDy=0;" edge="1" parent="1" source="nfOfjNwId2rxGAu0tH5m-11" target="nfOfjNwId2rxGAu0tH5m-13">
          <mxGeometry relative="1" as="geometry" />
        </mxCell>
        <mxCell id="nfOfjNwId2rxGAu0tH5m-9" style="edgeStyle=orthogonalEdgeStyle;rounded=0;orthogonalLoop=1;jettySize=auto;html=1;entryX=0;entryY=0.5;entryDx=0;entryDy=0;exitX=1;exitY=0.5;exitDx=0;exitDy=0;" edge="1" parent="1" source="nfOfjNwId2rxGAu0tH5m-11" target="nfOfjNwId2rxGAu0tH5m-12">
          <mxGeometry relative="1" as="geometry" />
        </mxCell>
        <mxCell id="nfOfjNwId2rxGAu0tH5m-10" style="edgeStyle=orthogonalEdgeStyle;rounded=0;orthogonalLoop=1;jettySize=auto;html=1;entryX=0;entryY=0.5;entryDx=0;entryDy=0;dashed=1;" edge="1" parent="1" source="nfOfjNwId2rxGAu0tH5m-11" target="nfOfjNwId2rxGAu0tH5m-31">
          <mxGeometry relative="1" as="geometry" />
        </mxCell>
        <mxCell id="nfOfjNwId2rxGAu0tH5m-11" value="&lt;font&gt;Hvilke løsmasser er lokale til veien?&lt;/font&gt;" style="rhombus;shadow=0;fontFamily=Helvetica;fontSize=12;align=center;strokeWidth=1;spacing=6;spacingTop=-4;rounded=0;arcSize=0;whiteSpace=wrap;html=1;" vertex="1" parent="1">
          <mxGeometry x="440" y="410" width="140" height="120" as="geometry" />
        </mxCell>
        <mxCell id="nfOfjNwId2rxGAu0tH5m-12" value="Tykk morene" style="rounded=0;whiteSpace=wrap;html=1;" vertex="1" parent="1">
          <mxGeometry x="680" y="370" width="120" height="60" as="geometry" />
        </mxCell>
        <mxCell id="nfOfjNwId2rxGAu0tH5m-13" value="Hav- og fjordavsetninger" style="rounded=0;whiteSpace=wrap;html=1;" vertex="1" parent="1">
          <mxGeometry x="680" y="440" width="120" height="60" as="geometry" />
        </mxCell>
        <mxCell id="nfOfjNwId2rxGAu0tH5m-14" value="Breelvavsetning" style="rounded=0;whiteSpace=wrap;html=1;" vertex="1" parent="1">
          <mxGeometry x="680" y="510" width="120" height="60" as="geometry" />
        </mxCell>
        <mxCell id="nfOfjNwId2rxGAu0tH5m-15" value="" style="endArrow=none;dashed=1;html=1;rounded=0;" edge="1" parent="1">
          <mxGeometry width="50" height="50" relative="1" as="geometry">
            <mxPoint x="850" y="640" as="sourcePoint" />
            <mxPoint x="850" y="370" as="targetPoint" />
          </mxGeometry>
        </mxCell>
        <mxCell id="nfOfjNwId2rxGAu0tH5m-16" value="" style="shape=flexArrow;endArrow=classic;html=1;rounded=0;fillColor=#000000;" edge="1" parent="1">
          <mxGeometry width="50" height="50" relative="1" as="geometry">
            <mxPoint x="830" y="509.86" as="sourcePoint" />
            <mxPoint x="890" y="509.86" as="targetPoint" />
          </mxGeometry>
        </mxCell>
        <mxCell id="nfOfjNwId2rxGAu0tH5m-17" style="edgeStyle=orthogonalEdgeStyle;rounded=0;orthogonalLoop=1;jettySize=auto;html=1;entryX=0;entryY=0.5;entryDx=0;entryDy=0;" edge="1" parent="1" source="nfOfjNwId2rxGAu0tH5m-20" target="nfOfjNwId2rxGAu0tH5m-22">
          <mxGeometry relative="1" as="geometry" />
        </mxCell>
        <mxCell id="nfOfjNwId2rxGAu0tH5m-18" style="edgeStyle=orthogonalEdgeStyle;rounded=0;orthogonalLoop=1;jettySize=auto;html=1;entryX=0;entryY=0.5;entryDx=0;entryDy=0;" edge="1" parent="1" source="nfOfjNwId2rxGAu0tH5m-20" target="nfOfjNwId2rxGAu0tH5m-24">
          <mxGeometry relative="1" as="geometry" />
        </mxCell>
        <mxCell id="nfOfjNwId2rxGAu0tH5m-19" style="edgeStyle=orthogonalEdgeStyle;rounded=0;orthogonalLoop=1;jettySize=auto;html=1;entryX=0;entryY=0.5;entryDx=0;entryDy=0;" edge="1" parent="1" source="nfOfjNwId2rxGAu0tH5m-20" target="nfOfjNwId2rxGAu0tH5m-26">
          <mxGeometry relative="1" as="geometry" />
        </mxCell>
        <mxCell id="nfOfjNwId2rxGAu0tH5m-20" value="Hvor fuktig er bakken?" style="rhombus;whiteSpace=wrap;html=1;shadow=0;fontFamily=Helvetica;fontSize=12;align=center;strokeWidth=1;spacing=6;spacingTop=-4;" vertex="1" parent="1">
          <mxGeometry x="900" y="460" width="120" height="100" as="geometry" />
        </mxCell>
        <mxCell id="nfOfjNwId2rxGAu0tH5m-21" style="edgeStyle=orthogonalEdgeStyle;rounded=0;orthogonalLoop=1;jettySize=auto;html=1;entryX=0;entryY=0.5;entryDx=0;entryDy=0;" edge="1" parent="1" source="nfOfjNwId2rxGAu0tH5m-22" target="nfOfjNwId2rxGAu0tH5m-27">
          <mxGeometry relative="1" as="geometry" />
        </mxCell>
        <mxCell id="nfOfjNwId2rxGAu0tH5m-22" value="Fuktig" style="rounded=0;whiteSpace=wrap;html=1;" vertex="1" parent="1">
          <mxGeometry x="1080" y="550" width="120" height="60" as="geometry" />
        </mxCell>
        <mxCell id="nfOfjNwId2rxGAu0tH5m-23" style="edgeStyle=orthogonalEdgeStyle;rounded=0;orthogonalLoop=1;jettySize=auto;html=1;" edge="1" parent="1" source="nfOfjNwId2rxGAu0tH5m-24" target="nfOfjNwId2rxGAu0tH5m-28">
          <mxGeometry relative="1" as="geometry" />
        </mxCell>
        <mxCell id="nfOfjNwId2rxGAu0tH5m-24" value="Normalt" style="rounded=0;whiteSpace=wrap;html=1;" vertex="1" parent="1">
          <mxGeometry x="1080" y="480" width="120" height="60" as="geometry" />
        </mxCell>
        <mxCell id="nfOfjNwId2rxGAu0tH5m-25" style="edgeStyle=orthogonalEdgeStyle;rounded=0;orthogonalLoop=1;jettySize=auto;html=1;" edge="1" parent="1" source="nfOfjNwId2rxGAu0tH5m-26" target="nfOfjNwId2rxGAu0tH5m-29">
          <mxGeometry relative="1" as="geometry" />
        </mxCell>
        <mxCell id="nfOfjNwId2rxGAu0tH5m-26" value="Tørt" style="rounded=0;whiteSpace=wrap;html=1;" vertex="1" parent="1">
          <mxGeometry x="1080" y="410" width="120" height="60" as="geometry" />
        </mxCell>
        <mxCell id="nfOfjNwId2rxGAu0tH5m-27" value="Dårlig bæreevne" style="rounded=1;whiteSpace=wrap;html=1;fontSize=12;glass=0;strokeWidth=1;shadow=0;fillColor=#f8cecc;strokeColor=#b85450;" vertex="1" parent="1">
          <mxGeometry x="1250" y="560" width="120" height="40" as="geometry" />
        </mxCell>
        <mxCell id="nfOfjNwId2rxGAu0tH5m-28" value="Middels bæreevne" style="rounded=1;whiteSpace=wrap;html=1;fontSize=12;glass=0;strokeWidth=1;shadow=0;fillColor=#fff2cc;strokeColor=#d6b656;" vertex="1" parent="1">
          <mxGeometry x="1250" y="490" width="120" height="40" as="geometry" />
        </mxCell>
        <mxCell id="nfOfjNwId2rxGAu0tH5m-29" value="God bæreevne" style="rounded=1;whiteSpace=wrap;html=1;fontSize=12;glass=0;strokeWidth=1;shadow=0;fillColor=#d5e8d4;strokeColor=#82b366;" vertex="1" parent="1">
          <mxGeometry x="1250" y="420" width="120" height="40" as="geometry" />
        </mxCell>
        <mxCell id="nfOfjNwId2rxGAu0tH5m-30" value="" style="endArrow=none;dashed=1;html=1;rounded=0;" edge="1" parent="1">
          <mxGeometry width="50" height="50" relative="1" as="geometry">
            <mxPoint x="860" y="640" as="sourcePoint" />
            <mxPoint x="860" y="370" as="targetPoint" />
          </mxGeometry>
        </mxCell>
        <mxCell id="nfOfjNwId2rxGAu0tH5m-31" value="..." style="rounded=0;whiteSpace=wrap;html=1;dashed=1;" vertex="1" parent="1">
          <mxGeometry x="680" y="580" width="120" height="60" as="geometry" />
        </mxCell>
      </root>
    </mxGraphModel>
  </diagram>
</mxfile>
